<?xml version="1.0" standalone="no"?>
<!DOCTYPE svg PUBLIC "-//W3C//DTD SVG 20010904//EN"
 "http://www.w3.org/TR/2001/REC-SVG-20010904/DTD/svg10.dtd">
<svg version="1.0" xmlns="http://www.w3.org/2000/svg"
 width="460.000000pt" height="460.000000pt" viewBox="0 0 460.000000 460.000000"
 preserveAspectRatio="xMidYMid meet">
<metadata>
Created by potrace 1.16, written by Peter Selinger 2001-2019
</metadata>
<g transform="translate(0.000000,460.000000) scale(0.100000,-0.100000)"
fill="#000000" stroke="none">
<path d="M2388 3299 c-69 -142 -88 -230 -87 -389 l1 -105 29 145 c16 80 41
193 55 252 28 116 28 151 2 97z"/>
<path d="M800 3114 c0 -3 55 -35 165 -98 50 -28 104 -59 120 -68 17 -9 52 -29
80 -44 27 -14 60 -34 75 -44 14 -10 47 -30 73 -46 90 -53 114 -69 178 -114
107 -74 173 -130 257 -219 180 -188 290 -430 292 -642 0 -33 -4 -37 -47 -59
-57 -28 -122 -72 -181 -121 -80 -69 -118 -150 -93 -198 29 -53 195 2 277 91
39 42 84 137 84 178 0 38 66 75 196 110 39 11 83 24 99 30 33 13 360 65 500
80 55 5 231 17 390 26 536 28 586 32 593 39 4 4 -200 5 -453 3 -430 -4 -473
-7 -665 -32 -242 -32 -434 -76 -590 -134 l-55 -21 -3 32 c-5 68 -24 163 -43
221 -47 140 -144 307 -238 406 -84 89 -136 140 -142 140 -3 0 -20 12 -36 28
-53 47 -169 127 -288 197 -44 26 -96 58 -115 70 -32 20 -77 46 -155 88 -81 44
-146 71 -207 87 -38 9 -68 16 -68 14z m1200 -1470 c-23 -47 -42 -71 -78 -95
-50 -34 -112 -59 -145 -59 -17 0 -19 5 -13 32 11 53 74 110 205 185 70 39 76
27 31 -63z"/>
</g>
</svg>
