<svg xmlns="http://www.w3.org/2000/svg" data-name="Layer 1" width="1076.063720703125" height="755.2279052734375" style=""><rect id="backgroundrect" width="100%" height="100%" x="0" y="0" fill="none" stroke="none"/><title>web_developer</title><g class="currentLayer" style=""><title>Layer 1</title><path d="M864.1457903515625,702.4233226367187 c-6.98452,26.59789 -31.459,43.21966 -31.459,43.21966 s-13.15033,-26.50193 -6.1658100000000005,-53.09982 s31.459,-43.21966 31.459,-43.21966 S871.1303103515625,675.8254326367188 864.1457903515625,702.4233226367187 z" fill="#242424" id="svg_1" class="" fill-opacity="1"/><path d="M853.5518603515625,696.7966126367188 c-19.56251,19.32716 -21.751170000000002,48.83128 -21.751170000000002,48.83128 s29.52845,-1.83141 49.091,-21.15858 s21.75116,-48.83129 21.75116,-48.83129 S873.1143403515625,677.4694426367188 853.5518603515625,696.7966126367188 z" fill="#b6b6b6" id="svg_2" class="" fill-opacity="1"/><path d="M144.7340703515625,601.8083326367188 h36.8414 l90.78774,-35.52564 s64.47245,-26.31528 59.20939,23.68376 s-14.47341,117.103 -14.47341,117.103 s-28.94681,-13.15764 -44.736,-9.21035 s-5.26306,-80.26162 -5.26306,-80.26162 s-128.9449,61.84092 -140.78678,53.94634 s-14.4734,-63.15669 -14.4734,-63.15669 z" fill="#242424" id="svg_3" class="" fill-opacity="1"/><path d="M202.77793035156247,486.4343126367188 l44.58576,64.05921 L351.3090603515625,637.3339526367188 s96.0508,22.368 82.89315,38.15717 S340.7829503515625,659.7019526367187 340.7829503515625,659.7019526367187 s-119.73455,-86.84044 -123.68184,-93.41927 S169.7336003515625,497.8629526367188 169.7336003515625,497.8629526367188 z" fill="#f2c07b" id="svg_5" class="" fill-opacity="1"/><path d="M176.3124203515625,434.7062726367187 l28.94681,56.57786 s-6.57882,27.631050000000002 -17.10494,30.26258 s-55.26209,-34.20987 -55.26209,-34.20987 z" fill="#d0cde1" id="svg_7"/><path d="M176.3124203515625,434.7062726367187 l28.94681,56.57786 s-6.57882,27.631050000000002 -17.10494,30.26258 s-55.26209,-34.20987 -55.26209,-34.20987 z" opacity="0.1" id="svg_8"/><path d="M529.4511603515625,572.5143926367188 L538.0018603515625,607.7859526367188 a2.20311,2.20311 0 0 1 -0.04279000000000001,1.19048 L499.17142035156246,730.1876926367188 a2.20306,2.20306 0 0 1 -4.28722,-0.42269 l-5.36581,-47.21916 a2.203,2.203 0 0 1 0.09431000000000002,-0.93128 L525.2154603515625,572.3509526367187 A2.20306,2.20306 0 0 1 529.4511603515625,572.5143926367188 z" fill="#2f2e41" id="svg_9"/><polygon points="526.306 575.493 534.2 605.756 499.99 716.28 492.096 682.07 526.306 575.493" fill="#f2f2f2" id="svg_10"/><path d="M353.9405903515625,739.9635826367188 c1.31577,3.94729 136.83949,-1.31577 138.15525,-2.63153 a28.56086,28.56086 0 0 0 2.89462,-5.26306 c1.2369,-2.63153 2.36844,-5.26306 2.36844,-5.26306 L492.09586035156246,684.2014826367188 l-134.208,-4.76306 s-3.35527,36.10458 -4.03949,52.63057 C353.6775003515625,736.2399526367187 353.6775003515625,739.1740726367187 353.9405903515625,739.9635826367188 z" fill="#2f2e41" id="svg_11"/><polygon points="474.991 689.965 477.622 726.806 418.413 726.806 418.413 689.965 474.991 689.965" opacity="0.1" id="svg_12" class=""/><polygon points="398.677 701.806 399.03 701.736 397.361 717.596 364.467 717.596 364.467 701.806 398.677 701.806" opacity="0.1" id="svg_13"/><path d="M353.9405903515625,739.9635826367188 c1.31577,3.94729 136.83949,-1.31577 138.15525,-2.63153 a28.56086,28.56086 0 0 0 2.89462,-5.26306 H353.8484003515625 C353.6775003515625,736.2399526367187 353.6775003515625,739.1740726367187 353.9405903515625,739.9635826367188 z" opacity="0.1" id="svg_14"/><circle cx="196.0488739013672" cy="357.076171875" r="59.209388732910156" fill="#fcdca9" id="svg_15" class="" stroke="none" fill-opacity="1"/><path d="M192.1015903515625,409.70675263671876 s-19.73647,34.20987 -23.68376,52.63057 s-59.20939,-36.8414 -59.20939,-36.8414 l-7.2367,-19.07858 s51.97268,-24.34164 48.02539,-44.07811 S192.1015903515625,409.70675263671876 192.1015903515625,409.70675263671876 z" fill="#fcdca9" id="svg_16" class="" fill-opacity="1"/><path d="M202.6277003515625,512.3363626367187 l53.94634,71.05127 l128.9449,96.05079 s93.41926,19.73647 72.367,34.20987 s-81.57738,-13.15764 -81.57738,-13.15764 S246.04792035156248,630.7551426367188 218.4168603515625,601.8083326367188 s-78.94585000000001,-77.63009 -78.94585000000001,-77.63009 z" fill="#fcdca9" id="svg_17" class="" stroke="none" fill-opacity="1"/><path d="M130.2606703515625,622.8605626367188 L146.0498603515625,647.8600826367187 l94.2313,-29.64581 c20.67581,-6.50474 43.34783,-4.1112400000000004 61.68676,7.44229 c16.44706,10.36164 26.97317,26.80869 3.28941,51.15033 c-47.36751,48.68328 -78.94585000000001,22.368 -78.94585000000001,22.368 S67.10398035156251,774.1734526367187 40.7887003515625,737.3320526367188 s-27.631,-55.2621 -27.631,-55.2621 S114.4715003515625,618.9132626367187 130.2606703515625,622.8605626367188 z" fill="#484848" id="svg_18" class="" fill-opacity="1"/><path d="M327.6253103515625,709.7010026367187 s42.10445,27.631050000000002 -7.89459,40.78869 s-86.84044,-5.26306 -86.84044,-5.26306 s-43.42022,0 -43.42022,-22.368 s14.47341,-24.99952 14.47341,-24.99952 l44.736,6.57882 S302.6257903515625,689.9645426367188 327.6253103515625,709.7010026367187 z" fill="#d0cde1" id="svg_19"/><path d="M244.6211103515625,342.18172263671875 c4.03,1.79653 8.02621,3.92291 12.40755,4.4444 s9.37055,-1.00819 11.44376,-4.9030000000000005 c1.11982,-2.10373 1.2477800000000001,-4.57826 1.3,-6.96089 c0.15849000000000005,-7.22517 -0.36406000000000005,-15.03591 -4.94264,-20.6274 c-2.9139,-3.55854 -7.16747,-5.80183 -10.18374,-9.274000000000001 c-2.161,-2.48761 -3.59924,-5.50284 -5.14786,-8.41141 c-5.866,-11.01725 -14.55128,-21.60559 -26.621950000000002,-24.78175 c-5.04041,-1.32629 -10.328,-1.26157 -15.53945,-1.188 l-30.39725,0.42884000000000005 c-4.91906,0.06940000000000002 -9.914,0.15005000000000002 -14.623,1.57383 c-9.784,2.95823 -16.90779,11.18591 -23.43216,19.05427 c-4.88119,5.88668 -9.7753,11.83425 -13.43862,18.54685 a65.07888,65.07888 0 0 0 -7.71423,31.88675 a29.83261,29.83261 0 0 0 1.09276,8.43732 a46.82177,46.82177 0 0 0 3.3162700000000003,7.28423 c5.70049,11.19673 9.08523,25.18219 2.66543,35.98258 c11.15187,-4.55542 22.18591,-10.52835 29.54232,-20.0677 c3.29093,-4.26748 5.87181,-9.26316 10.25758,-12.39472 s11.532,-3.40321 14.34592,1.1928 a12.85719,12.85719 0 0 1 1.4508,6.02242 c0.20551000000000003,3.44983 0.19990000000000005,7.03258 1.6625800000000002,10.16374 s4.94686,5.65758 8.27337,4.72061 c5.72869,-1.61358 5.18009,-10.406 9.59251,-14.4 c3.35094,-3.03318 8.52074,-2.45334 12.82574,-3.83026 c5.01582,-1.6042800000000002 8.77937,-5.94959 10.92379,-10.75939 c1.6300000000000001,-3.65594 1.6064500000000002,-13.223 4.690840000000001,-15.20283 C232.23941035156253,336.6361426367188 241.03572035156247,340.58338263671874 244.6211103515625,342.18172263671875 z" fill="#242424" id="svg_20" class="" fill-opacity="1"/><path d="M97.2715603515625,400.17602263671876 a15.61579,15.61579 0 0 1 8.128,0.020690000000000004 c8.44618,2.26753 27.38021,8.27035 31.43989,17.40462 c5.26306,11.84188 23.68376,30.26258 23.68376,30.26258 s24.99952,24.99952 19.73646,42.10446 s-24.99952,36.8414 -24.99952,36.8414 s5.26306,81.57738 -21.05223,102.62961 s-36.8414,6.57882 -36.8414,26.31528 S15.789180351562507,737.3320526367188 3.515624982242116e-7,699.1748926367187 c0,0 7.89459,-71.05128 5.26306,-96.0508 C2.6694803515624983,578.4851126367188 6.4663403515624935,424.75932263671876 97.2715603515625,400.17602263671876 z" fill="#d0cde1" id="svg_21"/><path d="M139.4710203515625,433.39050263671874 s80.26162,59.2094 65.78821,84.20892 c0,0 -48.68328,23.68375 -59.20939,22.368 s-51.31481,-47.36751 -61.84092,-51.31481 S68.4197503515625,413.65404263671877 139.4710203515625,433.39050263671874 z" fill="#d0cde1" id="svg_22"/><circle cx="498.063720703125" cy="237.45791625976562" r="65" fill="#6d6d6d" id="svg_23" class="" fill-opacity="1"/><path d="M1034.9296603515625,153.04061263671875 H670.6809803515625 V76.82117263671876 H1034.9296603515625 zM672.2856003515625,151.43595263671875 h361.03944 v-73.0102 H672.2856003515625 z" fill="#3f3d56" id="svg_24"/><rect x="645.8093872070312" y="92.0650634765625" width="362.6440734863281" height="74.61482238769531" fill="#242424" id="svg_25" class="" fill-opacity="1"/><circle cx="416.5648498535156" cy="15.243860244750977" r="5.61624002456665" fill="#242424" id="svg_26" class="" fill-opacity="1"/><circle cx="435.8203125" cy="15.243860244750977" r="5.61624002456665" fill="#242424" id="svg_27" class="" fill-opacity="1"/><circle cx="455.07574462890625" cy="15.243860244750977" r="5.61624002456665" fill="#242424" id="svg_28" class="" fill-opacity="1"/><path d="M1076.0637203515626,439.66582263671876 H400.5187903515625 V0.000002636718747339728 h675.54493 zm-673.94031,-1.6046200000000002 h672.33569 V1.6046226367187444 H402.1234103515625 z" fill="#3f3d56" id="svg_29"/><rect x="401.32110595703125" y="24.33803939819336" width="673.9403076171875" height="1.6046199798583984" fill="#3f3d56" id="svg_30"/><path d="M418.1696103515625,19.255442636718755 a6.41848,6.41848 0 1 1 6.41848,-6.41848 A6.42592,6.42592 0 0 1 418.1696103515625,19.255442636718755 zm0,-11.23234 a4.81386,4.81386 0 1 0 4.81386,4.81386 A4.81945,4.81945 0 0 0 418.1696103515625,8.023102636718747 z" fill="#242424" id="svg_31" class="" fill-opacity="1"/><path d="M437.4250503515625,19.255442636718755 a6.41848,6.41848 0 1 1 6.41848,-6.41848 A6.42592,6.42592 0 0 1 437.4250503515625,19.255442636718755 zm0,-11.23234 a4.81386,4.81386 0 1 0 4.81386,4.81386 A4.81945,4.81945 0 0 0 437.4250503515625,8.023102636718747 z" fill="#000000" id="svg_32" class="" fill-opacity="1"/><path d="M456.6804903515625,19.255442636718755 A6.41848,6.41848 0 1 1 463.0989603515625,12.836952636718749 A6.42593,6.42593 0 0 1 456.6804903515625,19.255442636718755 zm0,-11.23234 a4.81386,4.81386 0 1 0 4.81385,4.81386 A4.81946,4.81946 0 0 0 456.6804903515625,8.023102636718747 z" fill="#3f3d56" id="svg_33"/><rect x="612.1091918945312" y="25.140350341796875" width="1.6046199798583984" height="414.34564208984375" fill="#3f3d56" id="svg_34"/><rect x="688.73291015625" y="228.85888671875" width="117.9395523071289" height="16.046199798583984" fill="#f2f2f2" id="svg_35"/><rect x="874.0665283203125" y="228.85888671875" width="117.9395523071289" height="16.046199798583984" fill="#f2f2f2" id="svg_36"/><path d="M813.8932903515625,237.68430263671877 H694.3491203515625 V220.03348263671876 H813.8932903515625 zm-117.93955,-1.6046200000000002 H812.2886703515625 V221.63810263671877 H695.9537403515625 z" fill="#3f3d56" id="svg_37"/><rect x="688.73291015625" y="353.2169189453125" width="117.9395523071289" height="16.046199798583984" fill="#f2f2f2" id="svg_38"/><path d="M813.8932903515625,362.04233263671875 H694.3491203515625 V344.3915226367188 H813.8932903515625 zm-117.93955,-1.6046200000000002 H812.2886703515625 V345.99614263671873 H695.9537403515625 z" fill="#3f3d56" id="svg_39"/><rect x="689.1340942382812" y="289.43328857421875" width="303.27313232421875" height="16.046199798583984" fill="#f2f2f2" id="svg_40"/><path d="M999.6280303515625,299.86332263671875 H694.7502703515624 V282.21250263671874 h304.87776 zM696.3548603515625,298.25870263671874 h301.66852 V283.81712263671875 H696.3548603515625 z" fill="#3f3d56" id="svg_41"/><path d="M999.2268603515624,237.68430263671877 H879.6827003515625 V220.03348263671876 H999.2268603515624 zm-117.93955,-1.6046200000000002 h116.33493 V221.63810263671877 H881.2873203515625 z" fill="#3f3d56" id="svg_42"/><path d="M509.06372035156255,285.45795263671874 a66,66 0 1 1 66,-66 A66.07468,66.07468 0 0 1 509.06372035156255,285.45795263671874 zm0,-130 a64,64 0 1 0 64,64 A64.0727,64.0727 0 0 0 509.06372035156255,155.45795263671874 z" fill="#3f3d56" id="svg_43"/><rect x="748.063720703125" y="744.4578857421875" width="283" height="2" fill="#3f3d56" id="svg_44"/></g></svg>